<mxfile host="Electron" modified="2023-06-15T14:20:27.242Z" agent="Mozilla/5.0 (Windows NT 10.0; Win64; x64) AppleWebKit/537.36 (KHTML, like Gecko) draw.io/21.4.0 Chrome/112.0.5615.204 Electron/24.5.1 Safari/537.36" etag="5w9oBKIpDt4Xa9z8mDn9" version="21.4.0" type="device">
  <diagram name="Page-1" id="oL0eZGH5eensEGQ6-rVe">
    <mxGraphModel dx="572" dy="330" grid="1" gridSize="10" guides="1" tooltips="1" connect="1" arrows="1" fold="1" page="1" pageScale="1" pageWidth="827" pageHeight="1169" math="0" shadow="0">
      <root>
        <mxCell id="0" />
        <mxCell id="1" parent="0" />
        <mxCell id="2Ku3Bo0jKzFeyuAQp70S-15" value="" style="triangle;whiteSpace=wrap;html=1;strokeColor=#7EA6E0;strokeWidth=3;" vertex="1" parent="1">
          <mxGeometry x="40" y="130" width="60" height="35" as="geometry" />
        </mxCell>
        <mxCell id="2Ku3Bo0jKzFeyuAQp70S-16" style="edgeStyle=orthogonalEdgeStyle;rounded=0;orthogonalLoop=1;jettySize=auto;html=1;exitX=0;exitY=0.25;exitDx=0;exitDy=0;entryX=1;entryY=0.5;entryDx=0;entryDy=0;strokeColor=#7EA6E0;strokeWidth=3;endArrow=none;endFill=0;" edge="1" parent="1" source="2Ku3Bo0jKzFeyuAQp70S-2" target="2Ku3Bo0jKzFeyuAQp70S-15">
          <mxGeometry relative="1" as="geometry" />
        </mxCell>
        <mxCell id="2Ku3Bo0jKzFeyuAQp70S-17" value="" style="triangle;whiteSpace=wrap;html=1;strokeColor=#7EA6E0;strokeWidth=3;" vertex="1" parent="1">
          <mxGeometry x="40" y="200" width="60" height="35" as="geometry" />
        </mxCell>
        <mxCell id="2Ku3Bo0jKzFeyuAQp70S-18" style="edgeStyle=orthogonalEdgeStyle;shape=connector;rounded=0;orthogonalLoop=1;jettySize=auto;html=1;exitX=0;exitY=0.75;exitDx=0;exitDy=0;entryX=1;entryY=0.5;entryDx=0;entryDy=0;labelBackgroundColor=default;strokeColor=#7EA6E0;strokeWidth=3;fontFamily=Helvetica;fontSize=11;fontColor=default;endArrow=none;endFill=0;" edge="1" parent="1" source="2Ku3Bo0jKzFeyuAQp70S-2" target="2Ku3Bo0jKzFeyuAQp70S-17">
          <mxGeometry relative="1" as="geometry" />
        </mxCell>
        <mxCell id="2Ku3Bo0jKzFeyuAQp70S-45" value="" style="triangle;whiteSpace=wrap;html=1;strokeColor=#7EA6E0;strokeWidth=3;flipH=1;" vertex="1" parent="1">
          <mxGeometry x="345" y="130" width="60" height="35" as="geometry" />
        </mxCell>
        <mxCell id="2Ku3Bo0jKzFeyuAQp70S-46" value="" style="triangle;whiteSpace=wrap;html=1;strokeColor=#7EA6E0;strokeWidth=3;flipH=1;" vertex="1" parent="1">
          <mxGeometry x="345" y="200" width="60" height="35" as="geometry" />
        </mxCell>
        <mxCell id="2Ku3Bo0jKzFeyuAQp70S-49" style="edgeStyle=orthogonalEdgeStyle;shape=connector;rounded=0;orthogonalLoop=1;jettySize=auto;html=1;exitX=1;exitY=0.25;exitDx=0;exitDy=0;entryX=0;entryY=0.5;entryDx=0;entryDy=0;labelBackgroundColor=default;strokeColor=#7EA6E0;strokeWidth=3;fontFamily=Helvetica;fontSize=12;fontColor=default;endArrow=none;endFill=0;" edge="1" parent="1" source="2Ku3Bo0jKzFeyuAQp70S-2" target="2Ku3Bo0jKzFeyuAQp70S-45">
          <mxGeometry relative="1" as="geometry" />
        </mxCell>
        <mxCell id="2Ku3Bo0jKzFeyuAQp70S-50" style="edgeStyle=orthogonalEdgeStyle;shape=connector;rounded=0;orthogonalLoop=1;jettySize=auto;html=1;exitX=1;exitY=0.75;exitDx=0;exitDy=0;entryX=0.977;entryY=0.491;entryDx=0;entryDy=0;entryPerimeter=0;labelBackgroundColor=default;strokeColor=#7EA6E0;strokeWidth=3;fontFamily=Helvetica;fontSize=12;fontColor=default;endArrow=none;endFill=0;" edge="1" parent="1" source="2Ku3Bo0jKzFeyuAQp70S-2" target="2Ku3Bo0jKzFeyuAQp70S-46">
          <mxGeometry relative="1" as="geometry" />
        </mxCell>
        <mxCell id="2Ku3Bo0jKzFeyuAQp70S-8" value="partial mode" style="text;html=1;strokeColor=none;fillColor=none;align=center;verticalAlign=middle;whiteSpace=wrap;rounded=0;fontFamily=UGent Panno Text;fontSize=22;" vertex="1" parent="1">
          <mxGeometry x="140" y="120" width="160" height="20" as="geometry" />
        </mxCell>
        <mxCell id="2Ku3Bo0jKzFeyuAQp70S-2" value="" style="rounded=0;whiteSpace=wrap;html=1;fillColor=#fff2cc;strokeColor=#7EA6E0;strokeWidth=3;" vertex="1" parent="1">
          <mxGeometry x="160" y="150" width="120" height="60" as="geometry" />
        </mxCell>
        <mxCell id="2Ku3Bo0jKzFeyuAQp70S-51" value="" style="endArrow=none;html=1;rounded=0;labelBackgroundColor=default;strokeColor=#7EA6E0;strokeWidth=3;fontFamily=Helvetica;fontSize=12;fontColor=default;shape=connector;exitX=0;exitY=0.25;exitDx=0;exitDy=0;entryX=1;entryY=0.25;entryDx=0;entryDy=0;endFill=0;" edge="1" parent="1" source="2Ku3Bo0jKzFeyuAQp70S-2" target="2Ku3Bo0jKzFeyuAQp70S-2">
          <mxGeometry width="50" height="50" relative="1" as="geometry">
            <mxPoint x="240" y="270" as="sourcePoint" />
            <mxPoint x="290" y="220" as="targetPoint" />
          </mxGeometry>
        </mxCell>
        <mxCell id="2Ku3Bo0jKzFeyuAQp70S-52" value="" style="endArrow=none;html=1;rounded=0;labelBackgroundColor=default;strokeColor=#7EA6E0;strokeWidth=3;fontFamily=Helvetica;fontSize=12;fontColor=default;shape=connector;exitX=0;exitY=0.75;exitDx=0;exitDy=0;entryX=1;entryY=0.25;entryDx=0;entryDy=0;endFill=0;dashed=1;" edge="1" parent="1" source="2Ku3Bo0jKzFeyuAQp70S-2" target="2Ku3Bo0jKzFeyuAQp70S-2">
          <mxGeometry width="50" height="50" relative="1" as="geometry">
            <mxPoint x="170" y="175" as="sourcePoint" />
            <mxPoint x="290" y="175" as="targetPoint" />
          </mxGeometry>
        </mxCell>
        <mxCell id="2Ku3Bo0jKzFeyuAQp70S-55" value="" style="endArrow=none;html=1;rounded=0;labelBackgroundColor=default;strokeColor=#7EA6E0;strokeWidth=3;fontFamily=Helvetica;fontSize=12;fontColor=default;shape=connector;exitX=0;exitY=0.25;exitDx=0;exitDy=0;entryX=1;entryY=0.75;entryDx=0;entryDy=0;endFill=0;dashed=1;" edge="1" parent="1" source="2Ku3Bo0jKzFeyuAQp70S-2" target="2Ku3Bo0jKzFeyuAQp70S-2">
          <mxGeometry width="50" height="50" relative="1" as="geometry">
            <mxPoint x="170" y="175" as="sourcePoint" />
            <mxPoint x="290" y="175" as="targetPoint" />
          </mxGeometry>
        </mxCell>
        <mxCell id="2Ku3Bo0jKzFeyuAQp70S-56" value="" style="endArrow=none;html=1;rounded=0;labelBackgroundColor=default;strokeColor=#7EA6E0;strokeWidth=3;fontFamily=Helvetica;fontSize=12;fontColor=default;shape=connector;exitX=0;exitY=0.75;exitDx=0;exitDy=0;entryX=1;entryY=0.75;entryDx=0;entryDy=0;endFill=0;" edge="1" parent="1" source="2Ku3Bo0jKzFeyuAQp70S-2" target="2Ku3Bo0jKzFeyuAQp70S-2">
          <mxGeometry width="50" height="50" relative="1" as="geometry">
            <mxPoint x="170" y="175" as="sourcePoint" />
            <mxPoint x="290" y="175" as="targetPoint" />
          </mxGeometry>
        </mxCell>
      </root>
    </mxGraphModel>
  </diagram>
</mxfile>
